<svg width="512" height="512" viewBox="0 0 180 180" fill="none" xmlns="http://www.w3.org/2000/svg">
  <defs>
    <linearGradient id="bg" x1="20" y1="20" x2="160" y2="160" gradientUnits="userSpaceOnUse">
      <stop offset="0%" stop-color="#0A84FF"/>
      <stop offset="100%" stop-color="#64D2FF"/>
    </linearGradient>
    <linearGradient id="folder" x1="40" y1="55" x2="140" y2="140" gradientUnits="userSpaceOnUse">
      <stop offset="0%" stop-color="#ffffff" stop-opacity="0.18"/>
      <stop offset="100%" stop-color="#ffffff" stop-opacity="0.08"/>
    </linearGradient>
  </defs>
  <!-- App icon background -->
  <rect x="16" y="16" width="148" height="148" rx="33" fill="url(#bg)"/>
  <!-- Folder tab -->
  <path d="M46 62 L46 54 C46 50.686 48.686 48 52 48 L74 48 C76.5 48 78.8 49.3 80 51.5 L83 57 L128 57 C131.314 57 134 59.686 134 63 L134 63 L46 63 Z" fill="#ffffff" fill-opacity="0.3"/>
  <!-- Folder body -->
  <path d="M42 68 C42 64.686 44.686 62 48 62 L132 62 C135.314 62 138 64.686 138 68 L138 126 C138 129.314 135.314 132 132 132 L48 132 C44.686 132 42 129.314 42 126 Z" fill="url(#folder)" stroke="#ffffff" stroke-opacity="0.15" stroke-width="1"/>
  <!-- Whip -->
  <g transform="translate(88, 97)">
    <!-- Handle -->
    <line x1="-18" y1="18" x2="-8" y2="6" stroke="#ffffff" stroke-opacity="0.95" stroke-width="5" stroke-linecap="round"/>
    <!-- Handle grip lines -->
    <line x1="-16.5" y1="15.5" x2="-14" y2="12.5" stroke="#ffffff" stroke-opacity="0.35" stroke-width="1.5" stroke-linecap="round"/>
    <line x1="-14.5" y1="13" x2="-12" y2="10" stroke="#ffffff" stroke-opacity="0.35" stroke-width="1.5" stroke-linecap="round"/>
    <!-- Whip body curve -->
    <path d="M-8 6 Q2 -6, 14 -14" stroke="#ffffff" stroke-opacity="0.9" stroke-width="3.5" stroke-linecap="round" fill="none"/>
    <!-- Whip thinning -->
    <path d="M14 -14 Q20 -19, 26 -20" stroke="#ffffff" stroke-opacity="0.7" stroke-width="2.2" stroke-linecap="round" fill="none"/>
    <!-- Whip crack tip -->
    <path d="M26 -20 Q30 -20.5, 32 -17" stroke="#ffffff" stroke-opacity="0.5" stroke-width="1.3" stroke-linecap="round" fill="none"/>
    <!-- Crack sparks -->
    <line x1="31" y1="-18" x2="35" y2="-21" stroke="#ffffff" stroke-opacity="0.3" stroke-width="1.2" stroke-linecap="round"/>
    <line x1="32" y1="-15.5" x2="36" y2="-14" stroke="#ffffff" stroke-opacity="0.25" stroke-width="1.2" stroke-linecap="round"/>
  </g>
</svg>
