<svg width="270" height="80" viewBox="0 0 270 80" fill="none" xmlns="http://www.w3.org/2000/svg">
  <defs>
    <linearGradient id="bg" x1="0" y1="0" x2="72" y2="72" gradientUnits="userSpaceOnUse">
      <stop offset="0%" stop-color="#0A84FF"/>
      <stop offset="100%" stop-color="#64D2FF"/>
    </linearGradient>
  </defs>
  <rect x="4" y="4" width="72" height="72" rx="16" fill="url(#bg)"/>
  <g transform="translate(40,40) scale(1.18) translate(-40,-40)">
    <path d="M20 32 L20 28 C20 26.343 21.343 25 23 25 L32 25 C33 25 33.9 25.5 34.4 26.4 L35.6 28.6 L52 28.6 C53.657 28.6 55 29.943 55 31.6 L55 31.6 L20 31.6 Z" fill="rgba(255,255,255,0.55)"/>
    <path d="M18 34 C18 32.343 19.343 31 21 31 L59 31 C60.657 31 62 32.343 62 34 L62 56 C62 57.657 60.657 59 59 59 L21 59 C19.343 59 18 57.657 18 56 Z" fill="rgba(255,255,255,0.35)" stroke="rgba(255,255,255,0.35)" stroke-width="0.5"/>
    <g transform="translate(39, 45)">
      <line x1="-7" y1="7" x2="-2" y2="2" stroke="rgba(255,255,255,0.95)" stroke-width="2.5" stroke-linecap="round"/>
      <path d="M-2 2 Q3 -3, 8 -7" stroke="rgba(255,255,255,0.85)" stroke-width="1.8" stroke-linecap="round" fill="none"/>
      <path d="M8 -7 Q10.5 -9, 13 -8" stroke="rgba(255,255,255,0.6)" stroke-width="1" stroke-linecap="round" fill="none"/>
    </g>
  </g>
  <text x="96" y="52" font-family="Outfit, -apple-system, sans-serif" font-size="40" font-weight="600" fill="#f5f5f7" letter-spacing="1">Furman</text>
</svg>
